<svg xmlns="http://www.w3.org/2000/svg" width="64" height="64" viewBox="0 0 64 64" fill="none">
  <title>Vulos Meet</title>
  <defs>
    <linearGradient id="vmt-g" x1="10" y1="6" x2="54" y2="58" gradientUnits="userSpaceOnUse">
      <stop offset="0" stop-color="#19a3a6"/>
      <stop offset="1" stop-color="#C96AFF"/>
    </linearGradient>
  </defs>
  <!-- Call stage: a rounded video tile — same idea as Mail wrapping the canonical
       mark in an envelope; here the mark is the speaker on stage. -->
  <rect x="6" y="10" width="52" height="44" rx="11" fill="url(#vmt-g)" opacity="0.14"/>
  <rect x="6" y="10" width="52" height="44" rx="11" fill="none" stroke="url(#vmt-g)" stroke-width="2.5"/>
  <!-- Camera lens, centered up top — the "video" cue. -->
  <circle cx="32" cy="21" r="4.5" fill="none" stroke="url(#vmt-g)" stroke-width="2.2"/>
  <circle cx="32" cy="21" r="1.3" fill="url(#vmt-g)"/>
  <!-- Canonical Vulos mark. -->
  <g transform="translate(20 27) scale(0.5)">
    <path d="M25.946 44.938c-.664.845-2.021.375-2.021-.698V33.937a2.26 2.26 0 0 0-2.262-2.262H10.287c-.92 0-1.456-1.04-.92-1.788l7.48-10.471c1.07-1.497 0-3.578-1.842-3.578H1.237c-.92 0-1.456-1.04-.92-1.788L10.013.474c.214-.297.556-.474.92-.474h28.894c.92 0 1.456 1.04.92 1.788l-7.48 10.471c-1.07 1.498 0 3.579 1.842 3.579h11.377c.943 0 1.473 1.088.89 1.83L25.947 44.94z"
      fill="url(#vmt-g)"/>
  </g>
</svg>
